<svg width="35" height="35" viewBox="0 0 35 35" fill="none" xmlns="http://www.w3.org/2000/svg">
<circle cx="17.5" cy="17.5" r="17" fill="white" stroke="#23D160"/>
<path d="M26.224 10.016C27.104 10.016 27.544 10.376 27.544 11.096C27.544 11.32 27.496 11.6 27.4 11.936L26.824 13.88C26.648 14.472 26.432 14.888 26.176 15.128C25.92 15.368 25.552 15.488 25.072 15.488C24.672 15.488 24.36 15.384 24.136 15.176C23.928 14.968 23.728 14.64 23.536 14.192L23.128 13.208C23 12.904 22.864 12.696 22.72 12.584C22.576 12.472 22.352 12.416 22.048 12.416H21.496L18.448 23.144C18.4 23.352 18.376 23.536 18.376 23.696C18.376 23.888 18.4 24.048 18.448 24.176C18.512 24.304 18.6 24.44 18.712 24.584C18.856 24.808 18.928 24.992 18.928 25.136C18.928 25.168 18.912 25.248 18.88 25.376C18.8 25.584 18.64 25.736 18.4 25.832C18.176 25.928 17.848 25.976 17.416 25.976H11.776C11.44 25.976 11.176 25.92 10.984 25.808C10.808 25.696 10.72 25.536 10.72 25.328C10.72 25.232 10.744 25.136 10.792 25.04C10.856 24.896 10.928 24.792 11.008 24.728C11.104 24.648 11.24 24.552 11.416 24.44C11.656 24.296 11.856 24.136 12.016 23.96C12.176 23.784 12.312 23.512 12.424 23.144L15.448 12.416H14.896C14.544 12.416 14.256 12.472 14.032 12.584C13.808 12.696 13.568 12.904 13.312 13.208L12.52 14.192C12.152 14.624 11.792 14.952 11.44 15.176C11.104 15.384 10.736 15.488 10.336 15.488C9.968 15.488 9.68 15.392 9.472 15.2C9.264 15.008 9.16 14.744 9.16 14.408C9.16 14.248 9.184 14.072 9.232 13.88L9.856 11.696C9.984 11.248 10.128 10.912 10.288 10.688C10.448 10.448 10.672 10.28 10.96 10.184C11.264 10.072 11.688 10.016 12.232 10.016H26.224Z" fill="#23D160"/>
</svg>
