<svg width="190" height="29" viewBox="0 0 190 29" fill="none" xmlns="http://www.w3.org/2000/svg">
<path d="M22.03 3.02C23.13 3.02 23.68 3.47 23.68 4.37C23.68 4.65 23.62 5 23.5 5.42L22.78 7.85C22.56 8.59 22.29 9.11 21.97 9.41C21.65 9.71 21.19 9.86 20.59 9.86C20.09 9.86 19.7 9.73 19.42 9.47C19.16 9.21 18.91 8.8 18.67 8.24L18.16 7.01C18 6.63 17.83 6.37 17.65 6.23C17.47 6.09 17.19 6.02 16.81 6.02H16.12L12.31 19.43C12.25 19.69 12.22 19.92 12.22 20.12C12.22 20.36 12.25 20.56 12.31 20.72C12.39 20.88 12.5 21.05 12.64 21.23C12.82 21.51 12.91 21.74 12.91 21.92C12.91 21.96 12.89 22.06 12.85 22.22C12.75 22.48 12.55 22.67 12.25 22.79C11.97 22.91 11.56 22.97 11.02 22.97H3.97C3.55 22.97 3.22 22.9 2.98 22.76C2.76 22.62 2.65 22.42 2.65 22.16C2.65 22.04 2.68 21.92 2.74 21.8C2.82 21.62 2.91 21.49 3.01 21.41C3.13 21.31 3.3 21.19 3.52 21.05C3.82 20.87 4.07 20.67 4.27 20.45C4.47 20.23 4.64 19.89 4.78 19.43L8.56 6.02H7.87C7.43 6.02 7.07 6.09 6.79 6.23C6.51 6.37 6.21 6.63 5.89 7.01L4.9 8.24C4.44 8.78 3.99 9.19 3.55 9.47C3.13 9.73 2.67 9.86 2.17 9.86C1.71 9.86 1.35 9.74 1.09 9.5C0.83 9.26 0.7 8.93 0.7 8.51C0.7 8.31 0.73 8.09 0.79 7.85L1.57 5.12C1.73 4.56 1.91 4.14 2.11 3.86C2.31 3.56 2.59 3.35 2.95 3.23C3.33 3.09 3.86 3.02 4.54 3.02H22.03ZM39.1537 18.86C39.1137 18.94 39.0937 19.06 39.0937 19.22C39.0937 19.36 39.1237 19.47 39.1837 19.55C39.2637 19.63 39.3637 19.67 39.4837 19.67C39.7237 19.67 39.9237 19.57 40.0837 19.37C40.2637 19.15 40.3837 19.04 40.4437 19.04C40.5437 19.04 40.6237 19.11 40.6837 19.25C40.7437 19.37 40.7737 19.52 40.7737 19.7C40.7937 20.28 40.6037 20.85 40.2037 21.41C39.8037 21.95 39.2137 22.4 38.4337 22.76C37.6737 23.1 36.7537 23.27 35.6737 23.27C34.3537 23.27 33.3037 22.97 32.5237 22.37C31.7437 21.75 31.3437 20.93 31.3237 19.91C31.3237 19.17 31.5037 18.34 31.8637 17.42L33.5137 13.1C33.6137 12.84 33.6637 12.63 33.6637 12.47C33.6637 12.21 33.5737 12.01 33.3937 11.87C33.2337 11.71 33.0337 11.63 32.7937 11.63C32.4137 11.63 32.0237 11.81 31.6237 12.17C31.2437 12.51 30.9337 13.07 30.6937 13.85V13.79L28.8037 19.88C28.7437 20.12 28.7137 20.33 28.7137 20.51C28.7137 20.77 28.7637 20.98 28.8637 21.14C28.9637 21.28 29.1037 21.42 29.2837 21.56C29.4237 21.7 29.5237 21.82 29.5837 21.92C29.6437 22 29.6537 22.11 29.6137 22.25C29.5137 22.51 29.3137 22.7 29.0137 22.82C28.7137 22.94 28.2537 23 27.6337 23H20.7937C20.2737 23 19.8937 22.92 19.6537 22.76C19.4137 22.58 19.3337 22.35 19.4137 22.07C19.4937 21.83 19.7037 21.62 20.0437 21.44C20.3437 21.28 20.5937 21.09 20.7937 20.87C20.9937 20.65 21.1637 20.3 21.3037 19.82L25.8637 4.85C25.9237 4.67 25.9537 4.52 25.9537 4.4C25.9537 4.18 25.8937 4 25.7737 3.86C25.6737 3.72 25.5337 3.58 25.3537 3.44C25.1537 3.28 25.0037 3.14 24.9037 3.02C24.8237 2.9 24.8137 2.74 24.8737 2.54C24.9937 2.08 25.6237 1.68 26.7637 1.34C27.9037 0.999999 29.0937 0.829999 30.3337 0.829999C31.4937 0.829999 32.3437 1.05 32.8837 1.49C33.4437 1.93 33.7237 2.53 33.7237 3.29C33.7237 3.73 33.6537 4.16 33.5137 4.58L31.8937 9.86C32.6737 8.84 33.4937 8.13 34.3537 7.73C35.2337 7.33 36.1837 7.13 37.2037 7.13C38.4237 7.13 39.4037 7.5 40.1437 8.24C40.9037 8.98 41.2837 9.94 41.2837 11.12C41.2837 11.74 41.1837 12.35 40.9837 12.95L39.1537 18.86ZM49.9525 7.13C51.1125 7.13 51.9625 7.35 52.5025 7.79C53.0425 8.23 53.3125 8.83 53.3125 9.59C53.3125 10.05 53.2425 10.49 53.1025 10.91L50.3425 19.88C50.2825 20.12 50.2525 20.33 50.2525 20.51C50.2525 20.77 50.3025 20.98 50.4025 21.14C50.5025 21.28 50.6425 21.42 50.8225 21.56C50.9625 21.7 51.0625 21.82 51.1225 21.92C51.1825 22 51.1925 22.11 51.1525 22.25C51.0525 22.51 50.8525 22.7 50.5525 22.82C50.2525 22.94 49.7925 23 49.1725 23H42.3325C41.8125 23 41.4325 22.92 41.1925 22.76C40.9525 22.58 40.8725 22.35 40.9525 22.07C41.0325 21.83 41.2425 21.62 41.5825 21.44C41.8825 21.28 42.1325 21.09 42.3325 20.87C42.5325 20.65 42.7025 20.3 42.8425 19.82L45.4525 11.15C45.5125 10.97 45.5425 10.82 45.5425 10.7C45.5425 10.48 45.4925 10.31 45.3925 10.19C45.2925 10.05 45.1425 9.91 44.9425 9.77C44.7425 9.61 44.6025 9.47 44.5225 9.35C44.4425 9.23 44.4325 9.07 44.4925 8.87C44.6125 8.41 45.2425 8.01 46.3825 7.67C47.5225 7.31 48.7125 7.13 49.9525 7.13ZM51.9625 0.499998C52.7425 0.499998 53.3925 0.759998 53.9125 1.28C54.4325 1.78 54.6925 2.4 54.6925 3.14C54.6925 3.66 54.5525 4.17 54.2725 4.67C54.0125 5.17 53.6325 5.58 53.1325 5.9C52.6525 6.2 52.1125 6.35 51.5125 6.35C50.7525 6.35 50.1125 6.1 49.5925 5.6C49.0925 5.08 48.8325 4.44 48.8125 3.68C48.8125 3.18 48.9425 2.69 49.2025 2.21C49.4625 1.71 49.8325 1.3 50.3125 0.979999C50.7925 0.659999 51.3425 0.499998 51.9625 0.499998ZM62.9488 0.409999C63.7488 0.409999 64.4188 0.679999 64.9588 1.22C65.4988 1.74 65.7688 2.38 65.7688 3.14C65.7888 3.7 65.6488 4.25 65.3488 4.79C65.0688 5.31 64.6688 5.74 64.1488 6.08C63.6488 6.4 63.0688 6.56 62.4088 6.56C61.6088 6.56 60.9388 6.29 60.3988 5.75C59.8788 5.19 59.6188 4.51 59.6188 3.71C59.6188 3.19 59.7588 2.68 60.0388 2.18C60.3188 1.66 60.7088 1.24 61.2088 0.919998C61.7288 0.579999 62.3088 0.409999 62.9488 0.409999ZM55.7788 11.15C55.8188 11.05 55.8388 10.91 55.8388 10.73C55.8388 10.51 55.7888 10.34 55.6888 10.22C55.6088 10.1 55.4688 9.95 55.2688 9.77C55.0688 9.61 54.9288 9.47 54.8488 9.35C54.7688 9.23 54.7588 9.07 54.8188 8.87C54.9388 8.41 55.5688 8.01 56.7088 7.67C57.8488 7.31 59.0388 7.13 60.2788 7.13C61.4388 7.13 62.2888 7.35 62.8288 7.79C63.3688 8.23 63.6388 8.83 63.6388 9.59C63.6388 10.05 63.5688 10.49 63.4288 10.91L59.7388 23.33C59.1388 25.31 58.1988 26.7 56.9188 27.5C55.6388 28.3 53.9188 28.7 51.7588 28.7C50.8988 28.7 50.1588 28.59 49.5388 28.37C48.8988 28.15 48.6388 27.85 48.7588 27.47C48.7988 27.33 48.8888 27.2 49.0288 27.08C49.1688 26.96 49.3788 26.83 49.6588 26.69C50.1788 26.41 50.6188 26.1 50.9788 25.76C51.3188 25.44 51.5888 24.96 51.7888 24.32L55.7788 11.15ZM72.9677 6.86C74.6277 6.86 76.0577 7.01 77.2577 7.31C78.4777 7.61 79.4077 8.03 80.0477 8.57C80.7077 9.11 81.0377 9.72 81.0377 10.4C81.0377 11.1 80.7577 11.67 80.1977 12.11C79.6577 12.55 78.8977 12.77 77.9177 12.77C76.9177 12.77 76.0677 12.52 75.3677 12.02C74.6877 11.52 74.3477 10.89 74.3477 10.13C74.3477 9.87 74.3877 9.62 74.4677 9.38C74.1077 9.28 73.7877 9.23 73.5077 9.23C73.0077 9.23 72.5877 9.35 72.2477 9.59C71.9277 9.83 71.7777 10.17 71.7977 10.61C71.7977 11.13 72.0577 11.57 72.5777 11.93C73.0977 12.29 73.9377 12.74 75.0977 13.28C76.0977 13.72 76.9177 14.13 77.5577 14.51C78.2177 14.87 78.7677 15.33 79.2077 15.89C79.6677 16.45 79.8977 17.11 79.8977 17.87C79.8977 18.03 79.8577 18.33 79.7777 18.77C79.4577 20.11 78.5677 21.17 77.1077 21.95C75.6477 22.73 73.7277 23.12 71.3477 23.12C68.6677 23.12 66.5377 22.76 64.9577 22.04C63.3977 21.32 62.6177 20.33 62.6177 19.07C62.6177 18.21 62.8777 17.56 63.3977 17.12C63.9177 16.68 64.6077 16.46 65.4677 16.46C66.4677 16.46 67.3177 16.77 68.0177 17.39C68.7377 18.01 69.0977 18.8 69.0977 19.76C69.0977 20.02 69.0677 20.29 69.0077 20.57C69.4877 20.69 69.9477 20.75 70.3877 20.75C70.9077 20.75 71.3377 20.61 71.6777 20.33C72.0177 20.05 72.1877 19.66 72.1877 19.16C72.1677 18.7 71.9377 18.31 71.4977 17.99C71.0577 17.65 70.3577 17.25 69.3977 16.79C68.4977 16.37 67.7577 15.98 67.1777 15.62C66.5977 15.24 66.0977 14.77 65.6777 14.21C65.2777 13.65 65.0777 12.99 65.0777 12.23C65.0777 10.59 65.7577 9.29 67.1177 8.33C68.4977 7.35 70.4477 6.86 72.9677 6.86ZM110.257 3.02C111.077 3.02 111.487 3.28 111.487 3.8C111.487 3.94 111.477 4.04 111.457 4.1C111.397 4.3 111.307 4.46 111.187 4.58C111.067 4.68 110.897 4.8 110.677 4.94C110.377 5.12 110.127 5.32 109.927 5.54C109.727 5.76 109.557 6.1 109.417 6.56L105.697 19.88C105.357 21.08 104.927 21.92 104.407 22.4C103.907 22.88 103.207 23.12 102.307 23.12C101.507 23.12 100.837 22.89 100.297 22.43C99.7767 21.95 99.2867 21.22 98.8267 20.24L94.2967 10.7L91.7767 19.46C91.7167 19.72 91.6867 19.95 91.6867 20.15C91.6867 20.41 91.7267 20.63 91.8067 20.81C91.9067 20.97 92.0367 21.14 92.1967 21.32C92.4167 21.58 92.5267 21.8 92.5267 21.98C92.5267 22.1 92.5167 22.19 92.4967 22.25C92.4167 22.53 92.2367 22.73 91.9567 22.85C91.6767 22.95 91.2567 23 90.6967 23H87.4267C86.6067 23 86.1967 22.74 86.1967 22.22C86.1967 22.08 86.2067 21.98 86.2267 21.92C86.2867 21.72 86.3767 21.57 86.4967 21.47C86.6167 21.35 86.7867 21.22 87.0067 21.08C87.3067 20.9 87.5567 20.7 87.7567 20.48C87.9567 20.26 88.1267 19.92 88.2667 19.46L92.0767 5.99L91.5967 5C91.3967 4.6 91.2967 4.25 91.2967 3.95C91.2967 3.33 91.6967 3.02 92.4967 3.02H96.9367C97.5767 3.02 98.0567 3.17 98.3767 3.47C98.7167 3.75 99.0767 4.26 99.4567 5L103.837 13.79L105.907 6.56C105.967 6.28 105.997 6.05 105.997 5.87C105.997 5.61 105.947 5.4 105.847 5.24C105.767 5.06 105.647 4.88 105.487 4.7C105.267 4.44 105.157 4.22 105.157 4.04C105.157 3.92 105.167 3.83 105.187 3.77C105.267 3.49 105.447 3.3 105.727 3.2C106.007 3.08 106.427 3.02 106.987 3.02H110.257ZM116.574 7.13C117.734 7.13 118.584 7.35 119.124 7.79C119.664 8.23 119.934 8.83 119.934 9.59C119.934 10.05 119.864 10.49 119.724 10.91L116.964 19.88C116.904 20.12 116.874 20.33 116.874 20.51C116.874 20.77 116.924 20.98 117.024 21.14C117.124 21.28 117.264 21.42 117.444 21.56C117.584 21.7 117.684 21.82 117.744 21.92C117.804 22 117.814 22.11 117.774 22.25C117.674 22.51 117.474 22.7 117.174 22.82C116.874 22.94 116.414 23 115.794 23H108.954C108.434 23 108.054 22.92 107.814 22.76C107.574 22.58 107.494 22.35 107.574 22.07C107.654 21.83 107.864 21.62 108.204 21.44C108.504 21.28 108.754 21.09 108.954 20.87C109.154 20.65 109.324 20.3 109.464 19.82L112.074 11.15C112.134 10.97 112.164 10.82 112.164 10.7C112.164 10.48 112.114 10.31 112.014 10.19C111.914 10.05 111.764 9.91 111.564 9.77C111.364 9.61 111.224 9.47 111.144 9.35C111.064 9.23 111.054 9.07 111.114 8.87C111.234 8.41 111.864 8.01 113.004 7.67C114.144 7.31 115.334 7.13 116.574 7.13ZM118.584 0.499998C119.364 0.499998 120.014 0.759998 120.534 1.28C121.054 1.78 121.314 2.4 121.314 3.14C121.314 3.66 121.174 4.17 120.894 4.67C120.634 5.17 120.254 5.58 119.754 5.9C119.274 6.2 118.734 6.35 118.134 6.35C117.374 6.35 116.734 6.1 116.214 5.6C115.714 5.08 115.454 4.44 115.434 3.68C115.434 3.18 115.564 2.69 115.824 2.21C116.084 1.71 116.454 1.3 116.934 0.979999C117.414 0.659999 117.964 0.499998 118.584 0.499998ZM129.57 0.409999C130.37 0.409999 131.04 0.679999 131.58 1.22C132.12 1.74 132.39 2.38 132.39 3.14C132.41 3.7 132.27 4.25 131.97 4.79C131.69 5.31 131.29 5.74 130.77 6.08C130.27 6.4 129.69 6.56 129.03 6.56C128.23 6.56 127.56 6.29 127.02 5.75C126.5 5.19 126.24 4.51 126.24 3.71C126.24 3.19 126.38 2.68 126.66 2.18C126.94 1.66 127.33 1.24 127.83 0.919998C128.35 0.579999 128.93 0.409999 129.57 0.409999ZM122.4 11.15C122.44 11.05 122.46 10.91 122.46 10.73C122.46 10.51 122.41 10.34 122.31 10.22C122.23 10.1 122.09 9.95 121.89 9.77C121.69 9.61 121.55 9.47 121.47 9.35C121.39 9.23 121.38 9.07 121.44 8.87C121.56 8.41 122.19 8.01 123.33 7.67C124.47 7.31 125.66 7.13 126.9 7.13C128.06 7.13 128.91 7.35 129.45 7.79C129.99 8.23 130.26 8.83 130.26 9.59C130.26 10.05 130.19 10.49 130.05 10.91L126.36 23.33C125.76 25.31 124.82 26.7 123.54 27.5C122.26 28.3 120.54 28.7 118.38 28.7C117.52 28.7 116.78 28.59 116.16 28.37C115.52 28.15 115.26 27.85 115.38 27.47C115.42 27.33 115.51 27.2 115.65 27.08C115.79 26.96 116 26.83 116.28 26.69C116.8 26.41 117.24 26.1 117.6 25.76C117.94 25.44 118.21 24.96 118.41 24.32L122.4 11.15ZM148.109 18.86C148.069 18.94 148.049 19.06 148.049 19.22C148.049 19.36 148.079 19.47 148.139 19.55C148.219 19.63 148.319 19.67 148.439 19.67C148.679 19.67 148.879 19.57 149.039 19.37C149.219 19.15 149.339 19.04 149.399 19.04C149.499 19.04 149.579 19.11 149.639 19.25C149.699 19.37 149.729 19.52 149.729 19.7C149.749 20.28 149.559 20.85 149.159 21.41C148.759 21.95 148.169 22.4 147.389 22.76C146.629 23.1 145.709 23.27 144.629 23.27C143.309 23.27 142.259 22.97 141.479 22.37C140.699 21.75 140.299 20.93 140.279 19.91C140.279 19.17 140.459 18.34 140.819 17.42L142.469 13.1C142.569 12.84 142.619 12.63 142.619 12.47C142.619 12.21 142.529 12.01 142.349 11.87C142.189 11.71 141.989 11.63 141.749 11.63C141.369 11.63 140.979 11.81 140.579 12.17C140.199 12.51 139.889 13.07 139.649 13.85V13.79L137.759 19.88C137.699 20.12 137.669 20.33 137.669 20.51C137.669 20.77 137.719 20.98 137.819 21.14C137.919 21.28 138.059 21.42 138.239 21.56C138.379 21.7 138.479 21.82 138.539 21.92C138.599 22 138.609 22.11 138.569 22.25C138.469 22.51 138.269 22.7 137.969 22.82C137.669 22.94 137.209 23 136.589 23H129.749C129.229 23 128.849 22.92 128.609 22.76C128.369 22.58 128.289 22.35 128.369 22.07C128.449 21.83 128.659 21.62 128.999 21.44C129.299 21.28 129.549 21.09 129.749 20.87C129.949 20.65 130.119 20.3 130.259 19.82L134.819 4.85C134.879 4.67 134.909 4.52 134.909 4.4C134.909 4.18 134.849 4 134.729 3.86C134.629 3.72 134.489 3.58 134.309 3.44C134.109 3.28 133.959 3.14 133.859 3.02C133.779 2.9 133.769 2.74 133.829 2.54C133.949 2.08 134.579 1.68 135.719 1.34C136.859 0.999999 138.049 0.829999 139.289 0.829999C140.449 0.829999 141.299 1.05 141.839 1.49C142.399 1.93 142.679 2.53 142.679 3.29C142.679 3.73 142.609 4.16 142.469 4.58L140.849 9.86C141.629 8.84 142.449 8.13 143.309 7.73C144.189 7.33 145.139 7.13 146.159 7.13C147.379 7.13 148.359 7.5 149.099 8.24C149.859 8.98 150.239 9.94 150.239 11.12C150.239 11.74 150.139 12.35 149.939 12.95L148.109 18.86ZM162.628 7.13C165.348 7.13 167.348 7.68 168.628 8.78C169.928 9.88 170.578 11.32 170.578 13.1C170.578 13.7 170.498 14.37 170.338 15.11C169.958 16.75 169.248 18.19 168.208 19.43C167.168 20.65 165.888 21.6 164.368 22.28C162.868 22.94 161.238 23.27 159.478 23.27C156.698 23.27 154.638 22.72 153.298 21.62C151.978 20.5 151.318 19.02 151.318 17.18C151.318 16.56 151.398 15.87 151.558 15.11C151.938 13.55 152.658 12.17 153.718 10.97C154.798 9.75 156.108 8.81 157.648 8.15C159.208 7.47 160.868 7.13 162.628 7.13ZM162.538 9.8C162.118 9.8 161.668 10.18 161.188 10.94C160.728 11.68 160.178 13.09 159.538 15.17C158.898 17.25 158.578 18.71 158.578 19.55C158.578 19.99 158.648 20.29 158.788 20.45C158.928 20.59 159.118 20.66 159.358 20.66C159.778 20.7 160.208 20.34 160.648 19.58C161.108 18.82 161.678 17.34 162.358 15.14C162.978 13.2 163.288 11.79 163.288 10.91C163.288 10.49 163.218 10.2 163.078 10.04C162.958 9.88 162.778 9.8 162.538 9.8ZM182.945 0.829999C185.085 0.829999 186.685 1.16 187.745 1.82C188.825 2.46 189.365 3.25 189.365 4.19C189.365 4.95 189.045 5.54 188.405 5.96C187.785 6.36 186.965 6.56 185.945 6.56C185.005 6.56 184.275 6.33 183.755 5.87C183.235 5.41 182.975 4.84 182.975 4.16C182.975 3.74 183.105 3.3 183.365 2.84C182.765 2.84 182.265 2.99 181.865 3.29C181.465 3.57 181.155 4.06 180.935 4.76C180.815 5.2 180.755 5.61 180.755 5.99C180.755 6.47 180.835 6.85 180.995 7.13C181.175 7.39 181.425 7.52 181.745 7.52H183.515C184.555 7.52 185.075 7.84 185.075 8.48C185.075 8.56 185.055 8.68 185.015 8.84C184.895 9.28 184.645 9.61 184.265 9.83C183.905 10.05 183.355 10.16 182.615 10.16H181.715L178.745 19.88C178.685 20.12 178.655 20.33 178.655 20.51C178.655 20.77 178.705 20.98 178.805 21.14C178.905 21.28 179.045 21.42 179.225 21.56C179.365 21.7 179.465 21.82 179.525 21.92C179.585 22 179.595 22.11 179.555 22.25C179.455 22.51 179.255 22.7 178.955 22.82C178.655 22.94 178.195 23 177.575 23H170.735C170.215 23 169.835 22.92 169.595 22.76C169.355 22.58 169.275 22.35 169.355 22.07C169.435 21.83 169.645 21.62 169.985 21.44C170.285 21.28 170.535 21.09 170.735 20.87C170.935 20.65 171.105 20.3 171.245 19.82L173.585 12.14C173.685 11.84 173.735 11.53 173.735 11.21C173.735 10.81 173.645 10.5 173.465 10.28C173.305 10.04 173.055 9.78 172.715 9.5C172.495 9.32 172.325 9.17 172.205 9.05C172.105 8.91 172.055 8.75 172.055 8.57C172.035 8.19 172.165 7.92 172.445 7.76C172.745 7.6 173.305 7.52 174.125 7.52H174.875C174.735 7.02 174.665 6.52 174.665 6.02C174.665 5.52 174.755 5 174.935 4.46C175.315 3.44 176.125 2.58 177.365 1.88C178.625 1.18 180.485 0.829999 182.945 0.829999Z" fill="white"/>
</svg>
