<svg width="82" height="29" viewBox="0 0 82 29" fill="none" xmlns="http://www.w3.org/2000/svg">
<path d="M22.03 3.02C23.13 3.02 23.68 3.47 23.68 4.37C23.68 4.65 23.62 5 23.5 5.42L22.78 7.85C22.56 8.59 22.29 9.11 21.97 9.41C21.65 9.71 21.19 9.86 20.59 9.86C20.09 9.86 19.7 9.73 19.42 9.47C19.16 9.21 18.91 8.8 18.67 8.24L18.16 7.01C18 6.63 17.83 6.37 17.65 6.23C17.47 6.09 17.19 6.02 16.81 6.02H16.12L12.31 19.43C12.25 19.69 12.22 19.92 12.22 20.12C12.22 20.36 12.25 20.56 12.31 20.72C12.39 20.88 12.5 21.05 12.64 21.23C12.82 21.51 12.91 21.74 12.91 21.92C12.91 21.96 12.89 22.06 12.85 22.22C12.75 22.48 12.55 22.67 12.25 22.79C11.97 22.91 11.56 22.97 11.02 22.97H3.97C3.55 22.97 3.22 22.9 2.98 22.76C2.76 22.62 2.65 22.42 2.65 22.16C2.65 22.04 2.68 21.92 2.74 21.8C2.82 21.62 2.91 21.49 3.01 21.41C3.13 21.31 3.3 21.19 3.52 21.05C3.82 20.87 4.07 20.67 4.27 20.45C4.47 20.23 4.64 19.89 4.78 19.43L8.56 6.02H7.87C7.43 6.02 7.07 6.09 6.79 6.23C6.51 6.37 6.21 6.63 5.89 7.01L4.9 8.24C4.44 8.78 3.99 9.19 3.55 9.47C3.13 9.73 2.67 9.86 2.17 9.86C1.71 9.86 1.35 9.74 1.09 9.5C0.83 9.26 0.7 8.93 0.7 8.51C0.7 8.31 0.73 8.09 0.79 7.85L1.57 5.12C1.73 4.56 1.91 4.14 2.11 3.86C2.31 3.56 2.59 3.35 2.95 3.23C3.33 3.09 3.86 3.02 4.54 3.02H22.03ZM39.1537 18.86C39.1137 18.94 39.0937 19.06 39.0937 19.22C39.0937 19.36 39.1237 19.47 39.1837 19.55C39.2637 19.63 39.3637 19.67 39.4837 19.67C39.7237 19.67 39.9237 19.57 40.0837 19.37C40.2637 19.15 40.3837 19.04 40.4437 19.04C40.5437 19.04 40.6237 19.11 40.6837 19.25C40.7437 19.37 40.7737 19.52 40.7737 19.7C40.7937 20.28 40.6037 20.85 40.2037 21.41C39.8037 21.95 39.2137 22.4 38.4337 22.76C37.6737 23.1 36.7537 23.27 35.6737 23.27C34.3537 23.27 33.3037 22.97 32.5237 22.37C31.7437 21.75 31.3437 20.93 31.3237 19.91C31.3237 19.17 31.5037 18.34 31.8637 17.42L33.5137 13.1C33.6137 12.84 33.6637 12.63 33.6637 12.47C33.6637 12.21 33.5737 12.01 33.3937 11.87C33.2337 11.71 33.0337 11.63 32.7937 11.63C32.4137 11.63 32.0237 11.81 31.6237 12.17C31.2437 12.51 30.9337 13.07 30.6937 13.85V13.79L28.8037 19.88C28.7437 20.12 28.7137 20.33 28.7137 20.51C28.7137 20.77 28.7637 20.98 28.8637 21.14C28.9637 21.28 29.1037 21.42 29.2837 21.56C29.4237 21.7 29.5237 21.82 29.5837 21.92C29.6437 22 29.6537 22.11 29.6137 22.25C29.5137 22.51 29.3137 22.7 29.0137 22.82C28.7137 22.94 28.2537 23 27.6337 23H20.7937C20.2737 23 19.8937 22.92 19.6537 22.76C19.4137 22.58 19.3337 22.35 19.4137 22.07C19.4937 21.83 19.7037 21.62 20.0437 21.44C20.3437 21.28 20.5937 21.09 20.7937 20.87C20.9937 20.65 21.1637 20.3 21.3037 19.82L25.8637 4.85C25.9237 4.67 25.9537 4.52 25.9537 4.4C25.9537 4.18 25.8937 4 25.7737 3.86C25.6737 3.72 25.5337 3.58 25.3537 3.44C25.1537 3.28 25.0037 3.14 24.9037 3.02C24.8237 2.9 24.8137 2.74 24.8737 2.54C24.9937 2.08 25.6237 1.68 26.7637 1.34C27.9037 0.999999 29.0937 0.829999 30.3337 0.829999C31.4937 0.829999 32.3437 1.05 32.8837 1.49C33.4437 1.93 33.7237 2.53 33.7237 3.29C33.7237 3.73 33.6537 4.16 33.5137 4.58L31.8937 9.86C32.6737 8.84 33.4937 8.13 34.3537 7.73C35.2337 7.33 36.1837 7.13 37.2037 7.13C38.4237 7.13 39.4037 7.5 40.1437 8.24C40.9037 8.98 41.2837 9.94 41.2837 11.12C41.2837 11.74 41.1837 12.35 40.9837 12.95L39.1537 18.86ZM49.9525 7.13C51.1125 7.13 51.9625 7.35 52.5025 7.79C53.0425 8.23 53.3125 8.83 53.3125 9.59C53.3125 10.05 53.2425 10.49 53.1025 10.91L50.3425 19.88C50.2825 20.12 50.2525 20.33 50.2525 20.51C50.2525 20.77 50.3025 20.98 50.4025 21.14C50.5025 21.28 50.6425 21.42 50.8225 21.56C50.9625 21.7 51.0625 21.82 51.1225 21.92C51.1825 22 51.1925 22.11 51.1525 22.25C51.0525 22.51 50.8525 22.7 50.5525 22.82C50.2525 22.94 49.7925 23 49.1725 23H42.3325C41.8125 23 41.4325 22.92 41.1925 22.76C40.9525 22.58 40.8725 22.35 40.9525 22.07C41.0325 21.83 41.2425 21.62 41.5825 21.44C41.8825 21.28 42.1325 21.09 42.3325 20.87C42.5325 20.65 42.7025 20.3 42.8425 19.82L45.4525 11.15C45.5125 10.97 45.5425 10.82 45.5425 10.7C45.5425 10.48 45.4925 10.31 45.3925 10.19C45.2925 10.05 45.1425 9.91 44.9425 9.77C44.7425 9.61 44.6025 9.47 44.5225 9.35C44.4425 9.23 44.4325 9.07 44.4925 8.87C44.6125 8.41 45.2425 8.01 46.3825 7.67C47.5225 7.31 48.7125 7.13 49.9525 7.13ZM51.9625 0.499998C52.7425 0.499998 53.3925 0.759998 53.9125 1.28C54.4325 1.78 54.6925 2.4 54.6925 3.14C54.6925 3.66 54.5525 4.17 54.2725 4.67C54.0125 5.17 53.6325 5.58 53.1325 5.9C52.6525 6.2 52.1125 6.35 51.5125 6.35C50.7525 6.35 50.1125 6.1 49.5925 5.6C49.0925 5.08 48.8325 4.44 48.8125 3.68C48.8125 3.18 48.9425 2.69 49.2025 2.21C49.4625 1.71 49.8325 1.3 50.3125 0.979999C50.7925 0.659999 51.3425 0.499998 51.9625 0.499998ZM62.9488 0.409999C63.7488 0.409999 64.4188 0.679999 64.9588 1.22C65.4988 1.74 65.7688 2.38 65.7688 3.14C65.7888 3.7 65.6488 4.25 65.3488 4.79C65.0688 5.31 64.6688 5.74 64.1488 6.08C63.6488 6.4 63.0688 6.56 62.4088 6.56C61.6088 6.56 60.9388 6.29 60.3988 5.75C59.8788 5.19 59.6188 4.51 59.6188 3.71C59.6188 3.19 59.7588 2.68 60.0388 2.18C60.3188 1.66 60.7088 1.24 61.2088 0.919998C61.7288 0.579999 62.3088 0.409999 62.9488 0.409999ZM55.7788 11.15C55.8188 11.05 55.8388 10.91 55.8388 10.73C55.8388 10.51 55.7888 10.34 55.6888 10.22C55.6088 10.1 55.4688 9.95 55.2688 9.77C55.0688 9.61 54.9288 9.47 54.8488 9.35C54.7688 9.23 54.7588 9.07 54.8188 8.87C54.9388 8.41 55.5688 8.01 56.7088 7.67C57.8488 7.31 59.0388 7.13 60.2788 7.13C61.4388 7.13 62.2888 7.35 62.8288 7.79C63.3688 8.23 63.6388 8.83 63.6388 9.59C63.6388 10.05 63.5688 10.49 63.4288 10.91L59.7388 23.33C59.1388 25.31 58.1988 26.7 56.9188 27.5C55.6388 28.3 53.9188 28.7 51.7588 28.7C50.8988 28.7 50.1588 28.59 49.5388 28.37C48.8988 28.15 48.6388 27.85 48.7588 27.47C48.7988 27.33 48.8888 27.2 49.0288 27.08C49.1688 26.96 49.3788 26.83 49.6588 26.69C50.1788 26.41 50.6188 26.1 50.9788 25.76C51.3188 25.44 51.5888 24.96 51.7888 24.32L55.7788 11.15ZM72.9677 6.86C74.6277 6.86 76.0577 7.01 77.2577 7.31C78.4777 7.61 79.4077 8.03 80.0477 8.57C80.7077 9.11 81.0377 9.72 81.0377 10.4C81.0377 11.1 80.7577 11.67 80.1977 12.11C79.6577 12.55 78.8977 12.77 77.9177 12.77C76.9177 12.77 76.0677 12.52 75.3677 12.02C74.6877 11.52 74.3477 10.89 74.3477 10.13C74.3477 9.87 74.3877 9.62 74.4677 9.38C74.1077 9.28 73.7877 9.23 73.5077 9.23C73.0077 9.23 72.5877 9.35 72.2477 9.59C71.9277 9.83 71.7777 10.17 71.7977 10.61C71.7977 11.13 72.0577 11.57 72.5777 11.93C73.0977 12.29 73.9377 12.74 75.0977 13.28C76.0977 13.72 76.9177 14.13 77.5577 14.51C78.2177 14.87 78.7677 15.33 79.2077 15.89C79.6677 16.45 79.8977 17.11 79.8977 17.87C79.8977 18.03 79.8577 18.33 79.7777 18.77C79.4577 20.11 78.5677 21.17 77.1077 21.95C75.6477 22.73 73.7277 23.12 71.3477 23.12C68.6677 23.12 66.5377 22.76 64.9577 22.04C63.3977 21.32 62.6177 20.33 62.6177 19.07C62.6177 18.21 62.8777 17.56 63.3977 17.12C63.9177 16.68 64.6077 16.46 65.4677 16.46C66.4677 16.46 67.3177 16.77 68.0177 17.39C68.7377 18.01 69.0977 18.8 69.0977 19.76C69.0977 20.02 69.0677 20.29 69.0077 20.57C69.4877 20.69 69.9477 20.75 70.3877 20.75C70.9077 20.75 71.3377 20.61 71.6777 20.33C72.0177 20.05 72.1877 19.66 72.1877 19.16C72.1677 18.7 71.9377 18.31 71.4977 17.99C71.0577 17.65 70.3577 17.25 69.3977 16.79C68.4977 16.37 67.7577 15.98 67.1777 15.62C66.5977 15.24 66.0977 14.77 65.6777 14.21C65.2777 13.65 65.0777 12.99 65.0777 12.23C65.0777 10.59 65.7577 9.29 67.1177 8.33C68.4977 7.35 70.4477 6.86 72.9677 6.86Z" fill="white"/>
</svg>
